<svg width="192" height="71" viewBox="0 0 192 71" fill="none" xmlns="http://www.w3.org/2000/svg">
<g filter="url(#filter0_d_4976_106)">
<path d="M179.835 3H12.1654C8.20804 3 5 5.78414 5 9.21856V57.1014C5 60.5359 8.20804 63.32 12.1654 63.32H179.835C183.792 63.32 187 60.5359 187 57.1014V9.21856C187 5.78414 183.792 3 179.835 3Z" fill="black"/>
</g>
<path d="M67.5746 15.418C68.3886 15.418 69.1 15.5793 69.7086 15.902C70.3173 16.2247 70.7866 16.6793 71.1166 17.266C71.454 17.8453 71.6226 18.5163 71.6226 19.279C71.6226 20.0343 71.454 20.7053 71.1166 21.292C70.7866 21.8787 70.3136 22.3333 69.6976 22.656C69.089 22.9787 68.3813 23.14 67.5746 23.14H64.6816V15.418H67.5746ZM67.4536 21.512C68.165 21.512 68.7186 21.3177 69.1146 20.929C69.5106 20.5403 69.7086 19.9903 69.7086 19.279C69.7086 18.5677 69.5106 18.014 69.1146 17.618C68.7186 17.222 68.165 17.024 67.4536 17.024H66.5626V21.512H67.4536Z" fill="white"/>
<path d="M75.4678 23.228C74.8665 23.228 74.3238 23.0997 73.8398 22.843C73.3632 22.5863 72.9855 22.2197 72.7068 21.743C72.4355 21.2663 72.2998 20.709 72.2998 20.071C72.2998 19.4403 72.4392 18.8867 72.7178 18.41C72.9965 17.926 73.3778 17.5557 73.8618 17.299C74.3458 17.0423 74.8885 16.914 75.4898 16.914C76.0912 16.914 76.6338 17.0423 77.1178 17.299C77.6018 17.5557 77.9832 17.926 78.2618 18.41C78.5405 18.8867 78.6798 19.4403 78.6798 20.071C78.6798 20.7017 78.5368 21.259 78.2508 21.743C77.9722 22.2197 77.5872 22.5863 77.0958 22.843C76.6118 23.0997 76.0692 23.228 75.4678 23.228ZM75.4678 21.6C75.8272 21.6 76.1315 21.468 76.3808 21.204C76.6375 20.94 76.7658 20.5623 76.7658 20.071C76.7658 19.5797 76.6412 19.202 76.3918 18.938C76.1498 18.674 75.8492 18.542 75.4898 18.542C75.1232 18.542 74.8188 18.674 74.5768 18.938C74.3348 19.1947 74.2138 19.5723 74.2138 20.071C74.2138 20.5623 74.3312 20.94 74.5658 21.204C74.8078 21.468 75.1085 21.6 75.4678 21.6Z" fill="white"/>
<path d="M88.4887 17.002L86.8277 23.14H84.7487L83.7807 19.158L82.7797 23.14H80.7117L79.0397 17.002H80.9207L81.7897 21.391L82.8237 17.002H84.8147L85.8597 21.369L86.7177 17.002H88.4887Z" fill="white"/>
<path d="M92.9461 16.936C93.6647 16.936 94.2367 17.1707 94.6621 17.64C95.0947 18.102 95.3111 18.74 95.3111 19.554V23.14H93.4411V19.807C93.4411 19.3963 93.3347 19.0773 93.1221 18.85C92.9094 18.6227 92.6234 18.509 92.2641 18.509C91.9047 18.509 91.6187 18.6227 91.4061 18.85C91.1934 19.0773 91.0871 19.3963 91.0871 19.807V23.14H89.2061V17.002H91.0871V17.816C91.2777 17.5447 91.5344 17.332 91.8571 17.178C92.1797 17.0167 92.5427 16.936 92.9461 16.936Z" fill="white"/>
<path d="M98.4992 15V23.14H96.6182V15H98.4992Z" fill="white"/>
<path d="M102.656 23.228C102.055 23.228 101.512 23.0997 101.028 22.843C100.552 22.5863 100.174 22.2197 99.8953 21.743C99.624 21.2663 99.4883 20.709 99.4883 20.071C99.4883 19.4403 99.6276 18.8867 99.9063 18.41C100.185 17.926 100.566 17.5557 101.05 17.299C101.534 17.0423 102.077 16.914 102.678 16.914C103.28 16.914 103.822 17.0423 104.306 17.299C104.79 17.5557 105.172 17.926 105.45 18.41C105.729 18.8867 105.868 19.4403 105.868 20.071C105.868 20.7017 105.725 21.259 105.439 21.743C105.161 22.2197 104.776 22.5863 104.284 22.843C103.8 23.0997 103.258 23.228 102.656 23.228ZM102.656 21.6C103.016 21.6 103.32 21.468 103.569 21.204C103.826 20.94 103.954 20.5623 103.954 20.071C103.954 19.5797 103.83 19.202 103.58 18.938C103.338 18.674 103.038 18.542 102.678 18.542C102.312 18.542 102.007 18.674 101.765 18.938C101.523 19.1947 101.402 19.5723 101.402 20.071C101.402 20.5623 101.52 20.94 101.754 21.204C101.996 21.468 102.297 21.6 102.656 21.6Z" fill="white"/>
<path d="M106.492 20.06C106.492 19.4293 106.61 18.8757 106.844 18.399C107.086 17.9223 107.413 17.5557 107.823 17.299C108.234 17.0423 108.692 16.914 109.198 16.914C109.631 16.914 110.009 17.002 110.331 17.178C110.661 17.354 110.914 17.585 111.09 17.871V17.002H112.971V23.14H111.09V22.271C110.907 22.557 110.65 22.788 110.32 22.964C109.998 23.14 109.62 23.228 109.187 23.228C108.689 23.228 108.234 23.0997 107.823 22.843C107.413 22.579 107.086 22.2087 106.844 21.732C106.61 21.248 106.492 20.6907 106.492 20.06ZM111.09 20.071C111.09 19.6017 110.958 19.2313 110.694 18.96C110.438 18.6887 110.122 18.553 109.748 18.553C109.374 18.553 109.055 18.6887 108.791 18.96C108.535 19.224 108.406 19.5907 108.406 20.06C108.406 20.5293 108.535 20.9033 108.791 21.182C109.055 21.4533 109.374 21.589 109.748 21.589C110.122 21.589 110.438 21.4533 110.694 21.182C110.958 20.9107 111.09 20.5403 111.09 20.071Z" fill="white"/>
<path d="M113.958 20.06C113.958 19.4293 114.075 18.8757 114.31 18.399C114.552 17.9223 114.878 17.5557 115.289 17.299C115.7 17.0423 116.158 16.914 116.664 16.914C117.067 16.914 117.434 16.9983 117.764 17.167C118.101 17.3357 118.365 17.563 118.556 17.849V15H120.437V23.14H118.556V22.26C118.38 22.5533 118.127 22.788 117.797 22.964C117.474 23.14 117.097 23.228 116.664 23.228C116.158 23.228 115.7 23.0997 115.289 22.843C114.878 22.579 114.552 22.2087 114.31 21.732C114.075 21.248 113.958 20.6907 113.958 20.06ZM118.556 20.071C118.556 19.6017 118.424 19.2313 118.16 18.96C117.903 18.6887 117.588 18.553 117.214 18.553C116.84 18.553 116.521 18.6887 116.257 18.96C116 19.224 115.872 19.5907 115.872 20.06C115.872 20.5293 116 20.9033 116.257 21.182C116.521 21.4533 116.84 21.589 117.214 21.589C117.588 21.589 117.903 21.4533 118.16 21.182C118.424 20.9107 118.556 20.5403 118.556 20.071Z" fill="white"/>
<path d="M126.923 23.228C126.322 23.228 125.779 23.0997 125.295 22.843C124.818 22.5863 124.441 22.2197 124.162 21.743C123.891 21.2663 123.755 20.709 123.755 20.071C123.755 19.4403 123.894 18.8867 124.173 18.41C124.452 17.926 124.833 17.5557 125.317 17.299C125.801 17.0423 126.344 16.914 126.945 16.914C127.546 16.914 128.089 17.0423 128.573 17.299C129.057 17.5557 129.438 17.926 129.717 18.41C129.996 18.8867 130.135 19.4403 130.135 20.071C130.135 20.7017 129.992 21.259 129.706 21.743C129.427 22.2197 129.042 22.5863 128.551 22.843C128.067 23.0997 127.524 23.228 126.923 23.228ZM126.923 21.6C127.282 21.6 127.587 21.468 127.836 21.204C128.093 20.94 128.221 20.5623 128.221 20.071C128.221 19.5797 128.096 19.202 127.847 18.938C127.605 18.674 127.304 18.542 126.945 18.542C126.578 18.542 126.274 18.674 126.032 18.938C125.79 19.1947 125.669 19.5723 125.669 20.071C125.669 20.5623 125.786 20.94 126.021 21.204C126.263 21.468 126.564 21.6 126.923 21.6Z" fill="white"/>
<path d="M134.873 16.936C135.591 16.936 136.163 17.1707 136.589 17.64C137.021 18.102 137.238 18.74 137.238 19.554V23.14H135.368V19.807C135.368 19.3963 135.261 19.0773 135.049 18.85C134.836 18.6227 134.55 18.509 134.191 18.509C133.831 18.509 133.545 18.6227 133.333 18.85C133.12 19.0773 133.014 19.3963 133.014 19.807V23.14H131.133V17.002H133.014V17.816C133.204 17.5447 133.461 17.332 133.784 17.178C134.106 17.0167 134.469 16.936 134.873 16.936Z" fill="white"/>
<path d="M144.297 21.545V23.14H143.34C142.658 23.14 142.126 22.975 141.745 22.645C141.364 22.3077 141.173 21.7613 141.173 21.006V18.564H140.425V17.002H141.173V15.506H143.054V17.002H144.286V18.564H143.054V21.028C143.054 21.2113 143.098 21.3433 143.186 21.424C143.274 21.5047 143.421 21.545 143.626 21.545H144.297Z" fill="white"/>
<path d="M149.118 16.936C149.822 16.936 150.386 17.1707 150.812 17.64C151.237 18.102 151.45 18.74 151.45 19.554V23.14H149.58V19.807C149.58 19.3963 149.473 19.0773 149.261 18.85C149.048 18.6227 148.762 18.509 148.403 18.509C148.043 18.509 147.757 18.6227 147.545 18.85C147.332 19.0773 147.226 19.3963 147.226 19.807V23.14H145.345V15H147.226V17.827C147.416 17.5557 147.677 17.3393 148.007 17.178C148.337 17.0167 148.707 16.936 149.118 16.936Z" fill="white"/>
<path d="M158.543 19.972C158.543 20.148 158.532 20.3313 158.51 20.522H154.253C154.282 20.9033 154.403 21.1967 154.616 21.402C154.836 21.6 155.104 21.699 155.419 21.699C155.888 21.699 156.215 21.501 156.398 21.105H158.4C158.297 21.5083 158.11 21.8713 157.839 22.194C157.575 22.5167 157.241 22.7697 156.838 22.953C156.435 23.1363 155.983 23.228 155.485 23.228C154.883 23.228 154.348 23.0997 153.879 22.843C153.41 22.5863 153.043 22.2197 152.779 21.743C152.515 21.2663 152.383 20.709 152.383 20.071C152.383 19.433 152.511 18.8757 152.768 18.399C153.032 17.9223 153.399 17.5557 153.868 17.299C154.337 17.0423 154.876 16.914 155.485 16.914C156.079 16.914 156.607 17.0387 157.069 17.288C157.531 17.5373 157.89 17.893 158.147 18.355C158.411 18.817 158.543 19.356 158.543 19.972ZM156.618 19.477C156.618 19.1543 156.508 18.8977 156.288 18.707C156.068 18.5163 155.793 18.421 155.463 18.421C155.148 18.421 154.88 18.5127 154.66 18.696C154.447 18.8793 154.315 19.1397 154.264 19.477H156.618Z" fill="white"/>
<path d="M74.4369 43.347H68.5989L67.6329 46.14H64.5459L69.8169 31.461H73.2399L78.5109 46.14H75.4029L74.4369 43.347ZM73.6389 40.995L71.5179 34.863L69.3969 40.995H73.6389Z" fill="white"/>
<path d="M83.4211 36.186C83.7991 35.654 84.3171 35.213 84.9751 34.863C85.6471 34.499 86.4101 34.317 87.2641 34.317C88.2581 34.317 89.1541 34.562 89.9521 35.052C90.7641 35.542 91.4011 36.242 91.8631 37.152C92.3391 38.048 92.5771 39.091 92.5771 40.281C92.5771 41.471 92.3391 42.528 91.8631 43.452C91.4011 44.362 90.7641 45.069 89.9521 45.573C89.1541 46.077 88.2581 46.329 87.2641 46.329C86.4101 46.329 85.6541 46.154 84.9961 45.804C84.3521 45.454 83.8271 45.013 83.4211 44.481V51.684H80.4811V34.506H83.4211V36.186ZM89.5741 40.281C89.5741 39.581 89.4271 38.979 89.1331 38.475C88.8531 37.957 88.4751 37.565 87.9991 37.299C87.5371 37.033 87.0331 36.9 86.4871 36.9C85.9551 36.9 85.4511 37.04 84.9751 37.32C84.5131 37.586 84.1351 37.978 83.8411 38.496C83.5611 39.014 83.4211 39.623 83.4211 40.323C83.4211 41.023 83.5611 41.632 83.8411 42.15C84.1351 42.668 84.5131 43.067 84.9751 43.347C85.4511 43.613 85.9551 43.746 86.4871 43.746C87.0331 43.746 87.5371 43.606 87.9991 43.326C88.4751 43.046 88.8531 42.647 89.1331 42.129C89.4271 41.611 89.5741 40.995 89.5741 40.281Z" fill="white"/>
<path d="M97.6535 36.186C98.0315 35.654 98.5495 35.213 99.2075 34.863C99.8795 34.499 100.643 34.317 101.497 34.317C102.491 34.317 103.387 34.562 104.185 35.052C104.997 35.542 105.634 36.242 106.096 37.152C106.572 38.048 106.81 39.091 106.81 40.281C106.81 41.471 106.572 42.528 106.096 43.452C105.634 44.362 104.997 45.069 104.185 45.573C103.387 46.077 102.491 46.329 101.497 46.329C100.643 46.329 99.8865 46.154 99.2285 45.804C98.5845 45.454 98.0595 45.013 97.6535 44.481V51.684H94.7135V34.506H97.6535V36.186ZM103.807 40.281C103.807 39.581 103.66 38.979 103.366 38.475C103.086 37.957 102.708 37.565 102.232 37.299C101.77 37.033 101.266 36.9 100.72 36.9C100.188 36.9 99.6835 37.04 99.2075 37.32C98.7455 37.586 98.3675 37.978 98.0735 38.496C97.7935 39.014 97.6535 39.623 97.6535 40.323C97.6535 41.023 97.7935 41.632 98.0735 42.15C98.3675 42.668 98.7455 43.067 99.2075 43.347C99.6835 43.613 100.188 43.746 100.72 43.746C101.266 43.746 101.77 43.606 102.232 43.326C102.708 43.046 103.086 42.647 103.366 42.129C103.66 41.611 103.807 40.995 103.807 40.281Z" fill="white"/>
<path d="M119.011 46.287C117.989 46.287 117.065 46.112 116.239 45.762C115.427 45.412 114.783 44.908 114.307 44.25C113.831 43.592 113.586 42.815 113.572 41.919H116.722C116.764 42.521 116.974 42.997 117.352 43.347C117.744 43.697 118.276 43.872 118.948 43.872C119.634 43.872 120.173 43.711 120.565 43.389C120.957 43.053 121.153 42.619 121.153 42.087C121.153 41.653 121.02 41.296 120.754 41.016C120.488 40.736 120.152 40.519 119.746 40.365C119.354 40.197 118.808 40.015 118.108 39.819C117.156 39.539 116.379 39.266 115.777 39C115.189 38.72 114.678 38.307 114.244 37.761C113.824 37.201 113.614 36.459 113.614 35.535C113.614 34.667 113.831 33.911 114.265 33.267C114.699 32.623 115.308 32.133 116.092 31.797C116.876 31.447 117.772 31.272 118.78 31.272C120.292 31.272 121.517 31.643 122.455 32.385C123.407 33.113 123.932 34.135 124.03 35.451H120.796C120.768 34.947 120.551 34.534 120.145 34.212C119.753 33.876 119.228 33.708 118.57 33.708C117.996 33.708 117.534 33.855 117.184 34.149C116.848 34.443 116.68 34.87 116.68 35.43C116.68 35.822 116.806 36.151 117.058 36.417C117.324 36.669 117.646 36.879 118.024 37.047C118.416 37.201 118.962 37.383 119.662 37.593C120.614 37.873 121.391 38.153 121.993 38.433C122.595 38.713 123.113 39.133 123.547 39.693C123.981 40.253 124.198 40.988 124.198 41.898C124.198 42.682 123.995 43.41 123.589 44.082C123.183 44.754 122.588 45.293 121.804 45.699C121.02 46.091 120.089 46.287 119.011 46.287Z" fill="white"/>
<path d="M130.17 36.921V42.549C130.17 42.941 130.261 43.228 130.443 43.41C130.639 43.578 130.961 43.662 131.409 43.662H132.774V46.14H130.926C128.448 46.14 127.209 44.936 127.209 42.528V36.921H125.823V34.506H127.209V31.629H130.17V34.506H132.774V36.921H130.17Z" fill="white"/>
<path d="M140.054 46.329C138.934 46.329 137.926 46.084 137.03 45.594C136.134 45.09 135.427 44.383 134.909 43.473C134.405 42.563 134.153 41.513 134.153 40.323C134.153 39.133 134.412 38.083 134.93 37.173C135.462 36.263 136.183 35.563 137.093 35.073C138.003 34.569 139.018 34.317 140.138 34.317C141.258 34.317 142.273 34.569 143.183 35.073C144.093 35.563 144.807 36.263 145.325 37.173C145.857 38.083 146.123 39.133 146.123 40.323C146.123 41.513 145.85 42.563 145.304 43.473C144.772 44.383 144.044 45.09 143.12 45.594C142.21 46.084 141.188 46.329 140.054 46.329ZM140.054 43.767C140.586 43.767 141.083 43.641 141.545 43.389C142.021 43.123 142.399 42.731 142.679 42.213C142.959 41.695 143.099 41.065 143.099 40.323C143.099 39.217 142.805 38.37 142.217 37.782C141.643 37.18 140.936 36.879 140.096 36.879C139.256 36.879 138.549 37.18 137.975 37.782C137.415 38.37 137.135 39.217 137.135 40.323C137.135 41.429 137.408 42.283 137.954 42.885C138.514 43.473 139.214 43.767 140.054 43.767Z" fill="white"/>
<path d="M151.22 36.312C151.598 35.696 152.088 35.213 152.69 34.863C153.306 34.513 154.006 34.338 154.79 34.338V37.425H154.013C153.089 37.425 152.389 37.642 151.913 38.076C151.451 38.51 151.22 39.266 151.22 40.344V46.14H148.28V34.506H151.22V36.312Z" fill="white"/>
<path d="M167.585 40.071C167.585 40.491 167.557 40.869 167.501 41.205H158.996C159.066 42.045 159.36 42.703 159.878 43.179C160.396 43.655 161.033 43.893 161.789 43.893C162.881 43.893 163.658 43.424 164.12 42.486H167.291C166.955 43.606 166.311 44.53 165.359 45.258C164.407 45.972 163.238 46.329 161.852 46.329C160.732 46.329 159.724 46.084 158.828 45.594C157.946 45.09 157.253 44.383 156.749 43.473C156.259 42.563 156.014 41.513 156.014 40.323C156.014 39.119 156.259 38.062 156.749 37.152C157.239 36.242 157.925 35.542 158.807 35.052C159.689 34.562 160.704 34.317 161.852 34.317C162.958 34.317 163.945 34.555 164.813 35.031C165.695 35.507 166.374 36.186 166.85 37.068C167.34 37.936 167.585 38.937 167.585 40.071ZM164.54 39.231C164.526 38.475 164.253 37.873 163.721 37.425C163.189 36.963 162.538 36.732 161.768 36.732C161.04 36.732 160.424 36.956 159.92 37.404C159.43 37.838 159.129 38.447 159.017 39.231H164.54Z" fill="white"/>
<path d="M46.7143 34.0006C46.7592 38.8432 50.9535 40.4547 51 40.4752C50.4872 42.0915 49.7429 43.6246 48.7903 45.0264C47.4593 46.9759 46.078 48.918 43.9022 48.9583C41.7641 48.9978 41.0765 47.6878 38.6321 47.6878C36.1876 47.6878 35.4245 48.9181 33.4006 48.9979C31.3002 49.0776 29.7008 46.89 28.3592 44.9477C25.6171 40.9748 23.5215 33.7213 26.3353 28.8244C27.7327 26.3935 30.2308 24.8537 32.9422 24.8142C35.0047 24.7747 36.9513 26.2048 38.2122 26.2048C39.4732 26.2048 41.8379 24.4851 44.325 24.7377C45.3661 24.7811 48.2887 25.1591 50.1652 27.9119C50.014 28.0058 46.6782 29.952 46.7143 34.0007V34.0006ZM42.6962 22.1097C43.8113 20.757 44.5619 18.874 44.3571 17C42.7494 17.0648 40.8062 18.0734 39.6533 19.4253C38.6198 20.6222 37.7152 22.5387 37.9594 24.3752C39.7508 24.5141 41.5811 23.4628 42.6962 22.1093" fill="white"/>
<defs>
<filter id="filter0_d_4976_106" x="0" y="0" width="192" height="70.3198" filterUnits="userSpaceOnUse" color-interpolation-filters="sRGB">
<feFlood flood-opacity="0" result="BackgroundImageFix"/>
<feColorMatrix in="SourceAlpha" type="matrix" values="0 0 0 0 0 0 0 0 0 0 0 0 0 0 0 0 0 0 127 0" result="hardAlpha"/>
<feOffset dy="2"/>
<feGaussianBlur stdDeviation="2.5"/>
<feComposite in2="hardAlpha" operator="out"/>
<feColorMatrix type="matrix" values="0 0 0 0 0 0 0 0 0 0 0 0 0 0 0 0 0 0 0.1 0"/>
<feBlend mode="normal" in2="BackgroundImageFix" result="effect1_dropShadow_4976_106"/>
<feBlend mode="normal" in="SourceGraphic" in2="effect1_dropShadow_4976_106" result="shape"/>
</filter>
</defs>
</svg>
