<svg width="192" height="71" viewBox="0 0 192 71" fill="none" xmlns="http://www.w3.org/2000/svg">
<g filter="url(#filter0_d_4976_113)">
<path d="M179.835 3H12.1654C8.20804 3 5 5.78414 5 9.21856V57.1014C5 60.5359 8.20804 63.32 12.1654 63.32H179.835C183.792 63.32 187 60.5359 187 57.1014V9.21856C187 5.78414 183.792 3 179.835 3Z" fill="black"/>
</g>
<path d="M39.9171 32.9714L24.311 48.2903C23.9043 47.9763 23.5747 47.5735 23.3475 47.1126C23.1203 46.6517 23.0015 46.1449 23.0001 45.6311V20.3492C22.996 19.8344 23.1124 19.3258 23.3401 18.8641C23.5677 18.4023 23.9002 18.0002 24.311 17.6899L39.9171 32.9714Z" fill="#2196F3"/>
<path d="M52.3018 32.9715C52.3021 33.5682 52.1439 34.1543 51.8434 34.6698C51.5429 35.1853 51.1108 35.6117 50.5913 35.9054L45.6848 38.6271L39.9043 32.984L45.6848 27.3408L50.5913 30.0875C51.1099 30.3694 51.5426 30.7863 51.8437 31.294C52.1448 31.8016 52.303 32.3813 52.3018 32.9715Z" fill="#FFC107"/>
<path d="M45.6981 38.627L27.9072 48.565C27.4157 48.8283 26.8666 48.9656 26.3091 48.9645C25.728 48.9757 25.156 48.8197 24.6611 48.5151C24.5402 48.4517 24.4235 48.3808 24.3115 48.3028L39.9176 32.9839L45.6981 38.627Z" fill="#F44336"/>
<path d="M45.6981 27.3284L39.9176 32.9716L24.3115 17.6776C24.4235 17.5996 24.5402 17.5288 24.6611 17.4654C25.149 17.1697 25.7069 17.0092 26.2774 17.0004C26.8478 16.9916 27.4104 17.1349 27.9072 17.4155L45.6981 27.3284Z" fill="#4CAF50"/>
<path d="M66.6382 19.784C66.4862 19.504 66.2662 19.292 65.9782 19.148C65.6982 18.996 65.3662 18.92 64.9822 18.92C64.3182 18.92 63.7862 19.14 63.3862 19.58C62.9862 20.012 62.7862 20.592 62.7862 21.32C62.7862 22.096 62.9942 22.704 63.4102 23.144C63.8342 23.576 64.4142 23.792 65.1502 23.792C65.6542 23.792 66.0782 23.664 66.4222 23.408C66.7742 23.152 67.0302 22.784 67.1902 22.304H64.5862V20.792H69.0502V22.7C68.8982 23.212 68.6382 23.688 68.2702 24.128C67.9102 24.568 67.4502 24.924 66.8902 25.196C66.3302 25.468 65.6982 25.604 64.9942 25.604C64.1622 25.604 63.4182 25.424 62.7622 25.064C62.1142 24.696 61.6062 24.188 61.2382 23.54C60.8782 22.892 60.6982 22.152 60.6982 21.32C60.6982 20.488 60.8782 19.748 61.2382 19.1C61.6062 18.444 62.1142 17.936 62.7622 17.576C63.4102 17.208 64.1502 17.024 64.9822 17.024C65.9902 17.024 66.8382 17.268 67.5262 17.756C68.2222 18.244 68.6822 18.92 68.9062 19.784H66.6382Z" fill="white"/>
<path d="M72.2389 18.764V20.468H74.9869V22.052H72.2389V23.9H75.3469V25.544H70.1869V17.12H75.3469V18.764H72.2389Z" fill="white"/>
<path d="M82.7391 17.12V18.764H80.5071V25.544H78.4551V18.764H76.2231V17.12H82.7391Z" fill="white"/>
<path d="M88.3639 17.12V25.544H86.3119V17.12H88.3639Z" fill="white"/>
<path d="M95.9109 17.12V18.764H93.6789V25.544H91.6269V18.764H89.3949V17.12H95.9109Z" fill="white"/>
<path d="M103.468 25.628C102.676 25.628 101.948 25.444 101.284 25.076C100.628 24.708 100.104 24.196 99.7117 23.54C99.3277 22.876 99.1357 22.132 99.1357 21.308C99.1357 20.484 99.3277 19.744 99.7117 19.088C100.104 18.432 100.628 17.92 101.284 17.552C101.948 17.184 102.676 17 103.468 17C104.26 17 104.984 17.184 105.64 17.552C106.304 17.92 106.824 18.432 107.2 19.088C107.584 19.744 107.776 20.484 107.776 21.308C107.776 22.132 107.584 22.876 107.2 23.54C106.816 24.196 106.296 24.708 105.64 25.076C104.984 25.444 104.26 25.628 103.468 25.628ZM103.468 23.756C104.14 23.756 104.676 23.532 105.076 23.084C105.484 22.636 105.688 22.044 105.688 21.308C105.688 20.564 105.484 19.972 105.076 19.532C104.676 19.084 104.14 18.86 103.468 18.86C102.788 18.86 102.244 19.08 101.836 19.52C101.436 19.96 101.236 20.556 101.236 21.308C101.236 22.052 101.436 22.648 101.836 23.096C102.244 23.536 102.788 23.756 103.468 23.756Z" fill="white"/>
<path d="M116.453 25.544H114.401L110.969 20.348V25.544H108.917V17.12H110.969L114.401 22.34V17.12H116.453V25.544Z" fill="white"/>
<path d="M70.2922 35.76C70.0042 35.232 69.6082 34.83 69.1042 34.554C68.6002 34.278 68.0122 34.14 67.3402 34.14C66.5962 34.14 65.9362 34.308 65.3602 34.644C64.7842 34.98 64.3342 35.46 64.0102 36.084C63.6862 36.708 63.5242 37.428 63.5242 38.244C63.5242 39.084 63.6862 39.816 64.0102 40.44C64.3462 41.064 64.8082 41.544 65.3962 41.88C65.9842 42.216 66.6682 42.384 67.4482 42.384C68.4082 42.384 69.1942 42.132 69.8062 41.628C70.4182 41.112 70.8202 40.398 71.0122 39.486H66.6922V37.56H73.4962V39.756C73.3282 40.632 72.9682 41.442 72.4162 42.186C71.8642 42.93 71.1502 43.53 70.2742 43.986C69.4102 44.43 68.4382 44.652 67.3582 44.652C66.1462 44.652 65.0482 44.382 64.0642 43.842C63.0922 43.29 62.3242 42.528 61.7602 41.556C61.2082 40.584 60.9322 39.48 60.9322 38.244C60.9322 37.008 61.2082 35.904 61.7602 34.932C62.3242 33.948 63.0922 33.186 64.0642 32.646C65.0482 32.094 66.1402 31.818 67.3402 31.818C68.7562 31.818 69.9862 32.166 71.0302 32.862C72.0742 33.546 72.7942 34.512 73.1902 35.76H70.2922Z" fill="white"/>
<path d="M79.7886 44.706C78.8286 44.706 77.9646 44.496 77.1966 44.076C76.4286 43.644 75.8226 43.038 75.3786 42.258C74.9466 41.478 74.7306 40.578 74.7306 39.558C74.7306 38.538 74.9526 37.638 75.3966 36.858C75.8526 36.078 76.4706 35.478 77.2506 35.058C78.0306 34.626 78.9007 34.41 79.8606 34.41C80.8207 34.41 81.6906 34.626 82.4706 35.058C83.2506 35.478 83.8626 36.078 84.3067 36.858C84.7626 37.638 84.9906 38.538 84.9906 39.558C84.9906 40.578 84.7566 41.478 84.2886 42.258C83.8326 43.038 83.2086 43.644 82.4166 44.076C81.6366 44.496 80.7606 44.706 79.7886 44.706ZM79.7886 42.51C80.2446 42.51 80.6706 42.402 81.0666 42.186C81.4746 41.958 81.7986 41.622 82.0386 41.178C82.2786 40.734 82.3986 40.194 82.3986 39.558C82.3986 38.61 82.1466 37.884 81.6426 37.38C81.1506 36.864 80.5446 36.606 79.8246 36.606C79.1046 36.606 78.4986 36.864 78.0066 37.38C77.5266 37.884 77.2866 38.61 77.2866 39.558C77.2866 40.506 77.5206 41.238 77.9886 41.754C78.4686 42.258 79.0686 42.51 79.7886 42.51Z" fill="white"/>
<path d="M91.2672 44.706C90.3072 44.706 89.4432 44.496 88.6752 44.076C87.9072 43.644 87.3012 43.038 86.8572 42.258C86.4252 41.478 86.2092 40.578 86.2092 39.558C86.2092 38.538 86.4312 37.638 86.8752 36.858C87.3312 36.078 87.9492 35.478 88.7292 35.058C89.5092 34.626 90.3792 34.41 91.3392 34.41C92.2992 34.41 93.1692 34.626 93.9492 35.058C94.7292 35.478 95.3412 36.078 95.7852 36.858C96.2412 37.638 96.4692 38.538 96.4692 39.558C96.4692 40.578 96.2352 41.478 95.7672 42.258C95.3112 43.038 94.6872 43.644 93.8952 44.076C93.1152 44.496 92.2392 44.706 91.2672 44.706ZM91.2672 42.51C91.7232 42.51 92.1492 42.402 92.5452 42.186C92.9532 41.958 93.2772 41.622 93.5172 41.178C93.7572 40.734 93.8772 40.194 93.8772 39.558C93.8772 38.61 93.6252 37.884 93.1212 37.38C92.6292 36.864 92.0232 36.606 91.3032 36.606C90.5832 36.606 89.9772 36.864 89.4852 37.38C89.0052 37.884 88.7652 38.61 88.7652 39.558C88.7652 40.506 88.9992 41.238 89.4672 41.754C89.9472 42.258 90.5472 42.51 91.2672 42.51Z" fill="white"/>
<path d="M102.224 34.41C102.968 34.41 103.622 34.56 104.186 34.86C104.75 35.148 105.194 35.526 105.518 35.994V34.572H108.056V44.616C108.056 45.54 107.87 46.362 107.498 47.082C107.126 47.814 106.568 48.39 105.824 48.81C105.08 49.242 104.18 49.458 103.124 49.458C101.708 49.458 100.544 49.128 99.6317 48.468C98.7317 47.808 98.2217 46.908 98.1017 45.768H100.604C100.736 46.224 101.018 46.584 101.45 46.848C101.894 47.124 102.428 47.262 103.052 47.262C103.784 47.262 104.378 47.04 104.834 46.596C105.29 46.164 105.518 45.504 105.518 44.616V43.068C105.194 43.536 104.744 43.926 104.168 44.238C103.604 44.55 102.956 44.706 102.224 44.706C101.384 44.706 100.616 44.49 99.9197 44.058C99.2237 43.626 98.6717 43.02 98.2637 42.24C97.8677 41.448 97.6697 40.542 97.6697 39.522C97.6697 38.514 97.8677 37.62 98.2637 36.84C98.6717 36.06 99.2177 35.46 99.9017 35.04C100.598 34.62 101.372 34.41 102.224 34.41ZM105.518 39.558C105.518 38.946 105.398 38.424 105.158 37.992C104.918 37.548 104.594 37.212 104.186 36.984C103.778 36.744 103.34 36.624 102.872 36.624C102.404 36.624 101.972 36.738 101.576 36.966C101.18 37.194 100.856 37.53 100.604 37.974C100.364 38.406 100.244 38.922 100.244 39.522C100.244 40.122 100.364 40.65 100.604 41.106C100.856 41.55 101.18 41.892 101.576 42.132C101.984 42.372 102.416 42.492 102.872 42.492C103.34 42.492 103.778 42.378 104.186 42.15C104.594 41.91 104.918 41.574 105.158 41.142C105.398 40.698 105.518 40.17 105.518 39.558Z" fill="white"/>
<path d="M113.037 31.224V44.544H110.517V31.224H113.037Z" fill="white"/>
<path d="M124.797 39.342C124.797 39.702 124.773 40.026 124.725 40.314H117.435C117.495 41.034 117.747 41.598 118.191 42.006C118.635 42.414 119.181 42.618 119.829 42.618C120.765 42.618 121.431 42.216 121.827 41.412H124.545C124.257 42.372 123.705 43.164 122.889 43.788C122.073 44.4 121.071 44.706 119.883 44.706C118.923 44.706 118.059 44.496 117.291 44.076C116.535 43.644 115.941 43.038 115.509 42.258C115.089 41.478 114.879 40.578 114.879 39.558C114.879 38.526 115.089 37.62 115.509 36.84C115.929 36.06 116.517 35.46 117.273 35.04C118.029 34.62 118.899 34.41 119.883 34.41C120.831 34.41 121.677 34.614 122.421 35.022C123.177 35.43 123.759 36.012 124.167 36.768C124.587 37.512 124.797 38.37 124.797 39.342ZM122.187 38.622C122.175 37.974 121.941 37.458 121.485 37.074C121.029 36.678 120.471 36.48 119.811 36.48C119.187 36.48 118.659 36.672 118.227 37.056C117.807 37.428 117.549 37.95 117.453 38.622H122.187Z" fill="white"/>
<path d="M140.087 35.868C140.087 36.54 139.925 37.17 139.601 37.758C139.289 38.346 138.791 38.82 138.107 39.18C137.435 39.54 136.583 39.72 135.551 39.72H133.445V44.544H130.925V31.98H135.551C136.523 31.98 137.351 32.148 138.035 32.484C138.719 32.82 139.229 33.282 139.565 33.87C139.913 34.458 140.087 35.124 140.087 35.868ZM135.443 37.686C136.139 37.686 136.655 37.53 136.991 37.218C137.327 36.894 137.495 36.444 137.495 35.868C137.495 34.644 136.811 34.032 135.443 34.032H133.445V37.686H135.443Z" fill="white"/>
<path d="M144.396 31.224V44.544H141.876V31.224H144.396Z" fill="white"/>
<path d="M146.238 39.522C146.238 38.514 146.436 37.62 146.832 36.84C147.24 36.06 147.786 35.46 148.47 35.04C149.166 34.62 149.94 34.41 150.792 34.41C151.536 34.41 152.184 34.56 152.736 34.86C153.3 35.16 153.75 35.538 154.086 35.994V34.572H156.624V44.544H154.086V43.086C153.762 43.554 153.312 43.944 152.736 44.256C152.172 44.556 151.518 44.706 150.774 44.706C149.934 44.706 149.166 44.49 148.47 44.058C147.786 43.626 147.24 43.02 146.832 42.24C146.436 41.448 146.238 40.542 146.238 39.522ZM154.086 39.558C154.086 38.946 153.966 38.424 153.726 37.992C153.486 37.548 153.162 37.212 152.754 36.984C152.346 36.744 151.908 36.624 151.44 36.624C150.972 36.624 150.54 36.738 150.144 36.966C149.748 37.194 149.424 37.53 149.172 37.974C148.932 38.406 148.812 38.922 148.812 39.522C148.812 40.122 148.932 40.65 149.172 41.106C149.424 41.55 149.748 41.892 150.144 42.132C150.552 42.372 150.984 42.492 151.44 42.492C151.908 42.492 152.346 42.378 152.754 42.15C153.162 41.91 153.486 41.574 153.726 41.142C153.966 40.698 154.086 40.17 154.086 39.558Z" fill="white"/>
<path d="M168.625 34.572L162.451 49.26H159.769L161.929 44.292L157.933 34.572H160.759L163.333 41.538L165.943 34.572H168.625Z" fill="white"/>
<defs>
<filter id="filter0_d_4976_113" x="0" y="0" width="192" height="70.3198" filterUnits="userSpaceOnUse" color-interpolation-filters="sRGB">
<feFlood flood-opacity="0" result="BackgroundImageFix"/>
<feColorMatrix in="SourceAlpha" type="matrix" values="0 0 0 0 0 0 0 0 0 0 0 0 0 0 0 0 0 0 127 0" result="hardAlpha"/>
<feOffset dy="2"/>
<feGaussianBlur stdDeviation="2.5"/>
<feComposite in2="hardAlpha" operator="out"/>
<feColorMatrix type="matrix" values="0 0 0 0 0 0 0 0 0 0 0 0 0 0 0 0 0 0 0.1 0"/>
<feBlend mode="normal" in2="BackgroundImageFix" result="effect1_dropShadow_4976_113"/>
<feBlend mode="normal" in="SourceGraphic" in2="effect1_dropShadow_4976_113" result="shape"/>
</filter>
</defs>
</svg>
